<svg width="209" height="209" viewBox="0 0 209 209" fill="none" xmlns="http://www.w3.org/2000/svg">
<path d="M93.646 50.6118C93.646 44.8031 98.3832 40.0928 104.229 40.0928C110.075 40.0928 114.812 44.8031 114.812 50.6118C114.812 56.4205 110.075 61.1308 104.229 61.1308C98.3832 61.1308 93.646 56.4205 93.646 50.6118Z" fill="#1A1A1A"/>
<path d="M93.5986 160.324V71.6504H114.765V160.324H93.5986Z" fill="#1A1A1A"/>
<path d="M119.148 155.967L160.308 115.06L152.824 107.624C148.69 103.517 141.989 103.517 137.858 107.624L104.182 141.095L70.5054 107.624C66.3712 103.517 59.6697 103.517 55.5389 107.624L48.0557 115.06L89.2152 155.967L104.182 170.843L106.928 168.114L119.148 155.967Z" fill="#1A1A1A"/>
<path d="M104.182 8.27343C91.5195 8.27343 78.9813 10.7674 67.283 15.613C55.5846 20.4586 44.9553 27.5609 36.0018 36.5145C27.0483 45.468 19.946 56.0973 15.1003 67.7956C10.2547 79.494 7.76074 92.0322 7.76074 104.694C7.76074 117.356 10.2547 129.895 15.1003 141.593C19.9459 153.291 27.0483 163.921 36.0018 172.874C44.9553 181.828 55.5846 188.93 67.283 193.776C78.9813 198.621 91.5195 201.115 104.182 201.115C116.844 201.115 129.382 198.621 141.08 193.776C152.779 188.93 163.408 181.828 172.362 172.874C181.315 163.921 188.417 153.291 193.263 141.593C198.109 129.895 200.603 117.357 200.603 104.694C200.603 92.0322 198.109 79.494 193.263 67.7957C188.417 56.0973 181.315 45.468 172.362 36.5145C163.408 27.561 152.779 20.4586 141.08 15.613C129.382 10.7674 116.844 8.27343 104.182 8.27343L104.182 8.27343Z" stroke="#1A1A1A" stroke-width="15"/>
</svg>
