<?xml version="1.0" encoding="UTF-8" standalone="no"?>
<svg
   width="18"
   height="18"
   viewBox="0 0 18 18"
   fill="none"
   version="1.1"
   id="svg61"
   sodipodi:docname="icon.svg"
   inkscape:export-filename="../Projects/invisible/icon.svg"
   inkscape:export-xdpi="96"
   inkscape:export-ydpi="96"
   inkscape:version="1.2.1 (9c6d41e, 2022-07-14)"
   xmlns:inkscape="http://www.inkscape.org/namespaces/inkscape"
   xmlns:sodipodi="http://sodipodi.sourceforge.net/DTD/sodipodi-0.dtd"
   xmlns="http://www.w3.org/2000/svg"
   xmlns:svg="http://www.w3.org/2000/svg">
  <defs
     id="defs65" />
  <sodipodi:namedview
     id="namedview63"
     pagecolor="#ffffff"
     bordercolor="#000000"
     borderopacity="0.25"
     inkscape:showpageshadow="2"
     inkscape:pageopacity="0"
     inkscape:pagecheckerboard="0"
     inkscape:deskcolor="#d1d1d1"
     showgrid="false"
     inkscape:zoom="57.055556"
     inkscape:cx="8.9912366"
     inkscape:cy="9"
     inkscape:window-width="1390"
     inkscape:window-height="1205"
     inkscape:window-x="1080"
     inkscape:window-y="25"
     inkscape:window-maximized="0"
     inkscape:current-layer="svg61" />
  <circle
     cx="9"
     cy="9"
     r="8"
     fill="white"
     stroke="#343434"
     stroke-width="2"
     id="circle55"
     style="fill:none" />
  <path
     d="M4.77344 6.38406V7.58416H6.78166V11.7152H4.77344V12.9093H10.1528V11.7152H8.23505V6.38406H4.77344ZM6.64898 4.69546C6.64898 4.84824 6.68516 4.98293 6.75753 5.09952C6.83392 5.21209 6.94448 5.29049 7.08922 5.33472C7.22994 5.37894 7.35859 5.38899 7.47518 5.36487C7.59178 5.34075 7.7387 5.33691 7.82313 5.26052C7.99199 5.21629 8.07423 5.08344 8.16268 4.95478C8.25113 4.82211 8.28129 4.66732 8.25314 4.49042C8.23304 4.31754 8.15464 4.17683 8.01795 4.06827C7.88527 3.9557 7.71038 3.89941 7.49328 3.89941C7.36462 3.89941 7.24803 3.91952 7.1435 3.95972C7.04298 3.9959 6.95654 4.04817 6.88418 4.11652C6.80779 4.18889 6.74949 4.27533 6.70929 4.37584C6.66908 4.47233 6.64898 4.57887 6.64898 4.69546Z"
     fill="#343434"
     id="path57" />
  <path
     d="M10.5361 12.9093H11.8086L14.3656 6.38406H12.87L11.2719 11.1181L11.1754 11.5524L11.0789 11.1181L9.46266 6.38406H7.96705L10.5361 12.9093Z"
     fill="#343434"
     id="path59" />
</svg>
