<?xml version="1.0" encoding="UTF-8" standalone="no"?>
<svg
   xmlns:dc="http://purl.org/dc/elements/1.1/"
   xmlns:cc="http://creativecommons.org/ns#"
   xmlns:rdf="http://www.w3.org/1999/02/22-rdf-syntax-ns#"
   xmlns:svg="http://www.w3.org/2000/svg"
   xmlns="http://www.w3.org/2000/svg"
   xmlns:sodipodi="http://sodipodi.sourceforge.net/DTD/sodipodi-0.dtd"
   xmlns:inkscape="http://www.inkscape.org/namespaces/inkscape"
   width="40"
   height="40"
   viewBox="0 0 40 40"
   fill="none"
   version="1.1"
   id="svg5161"
   sodipodi:docname="Plugin_Button.svg"
   inkscape:export-filename="/home/orange/tempfolderiv/favicon-32x32.png"
   inkscape:export-xdpi="96"
   inkscape:export-ydpi="96"
   inkscape:version="0.92.5 (2060ec1f9f, 2020-04-08)">
  <metadata
     id="metadata5167">
    <rdf:RDF>
      <cc:Work
         rdf:about="">
        <dc:format>image/svg+xml</dc:format>
        <dc:type
           rdf:resource="http://purl.org/dc/dcmitype/StillImage" />
      </cc:Work>
    </rdf:RDF>
  </metadata>
  <defs
     id="defs5165" />
  <sodipodi:namedview
     pagecolor="#ffffff"
     bordercolor="#666666"
     borderopacity="1"
     objecttolerance="10"
     gridtolerance="10"
     guidetolerance="10"
     inkscape:pageopacity="0"
     inkscape:pageshadow="2"
     inkscape:window-width="956"
     inkscape:window-height="1054"
     id="namedview5163"
     showgrid="false"
     inkscape:zoom="5.9"
     inkscape:cx="-13.389831"
     inkscape:cy="20"
     inkscape:window-x="5760"
     inkscape:window-y="1104"
     inkscape:window-maximized="0"
     inkscape:current-layer="svg5161" />
  <circle
     cx="20"
     cy="20"
     r="20"
     fill="#DDDDDD"
     id="circle5155" />
  <path
     d="M14.9024 28.1773L15.4519 27.9136V11.0111L15.2321 11.099V25.7156C15.2321 26.9245 15.1442 27.5839 14.9024 28.1773ZM14.265 29.9138C15.2981 28.529 16.2872 27.452 17.7598 26.1552L17.4961 25.8914C17.1664 26.3091 16.5729 27.0124 16.0674 27.5179C15.3201 27.3641 14.5947 27.0784 13.7155 26.5948V13.8025C13.7155 12.132 14.4848 11.143 17.6719 10.3737L17.518 10C16.5509 10.5275 14.243 11.5166 13.6056 11.5166C12.8803 11.5166 11.056 10.6154 10.4845 10.6154C9.51738 10.6154 8.35245 12.5936 7.14355 13.6487L7.34137 13.8465C7.73701 13.0772 8.06671 12.9233 8.48433 12.9233C8.92392 12.9233 9.53936 13.0772 10.3526 13.4728C11.3637 12.9013 13.2759 11.9782 14.265 11.5826L14.287 11.6045C13.1001 12.132 11.2977 13.6926 11.2977 15.7587V16.9676L8.7261 17.627C9.64926 17.6929 10.8581 18.1545 11.2977 18.5282V19.7591L8.7261 20.4185C9.64926 20.4844 10.8581 20.946 11.2977 21.3196V26.6168L8.59422 27.3861C10.3306 27.8037 12.7484 28.9027 14.265 29.9138Z"
     id="path5157"
     fill="#444444" />
  <path
     d="M26.923 17.3632L30.5057 14.9894V14.7476L26.923 17.1214V17.3632ZM26.923 19.5612L30.5057 17.1874V16.9456L26.923 19.3194V19.5612ZM27.0549 27.7157V12.2859L26.8351 12.3738V27.6058L27.0549 27.7157ZM25.7361 30.0016C27.6703 28.463 30.242 26.9464 32.8576 25.6057L30.7475 24.5286L31.4509 26.0452L32.4839 19.5172C32.7037 18.1765 32.7916 17.2973 32.7916 16.528C32.7916 12.3298 29.7364 10.5934 28.3737 10.5934C28.1539 10.5934 26.1757 13.253 25.0767 14.1981L25.6042 14.6597C25.9998 13.8904 26.4614 13.1431 27.0109 12.4397L26.7472 12.4617C28.5055 12.6375 30.3079 13.8464 30.3079 16.8137C30.3079 17.539 30.242 18.1545 30.0441 19.4513L28.7254 27.8036L28.9012 27.7157C27.3846 27.5399 25.2745 26.8585 24.1096 26.1771V13.0332C24.1096 12.3958 20.9665 10.5275 20.7027 10.5275C20.5488 10.5275 20.1972 10.9671 19.4938 11.8682C18.8564 12.7035 18.219 13.5167 17.5156 14.33L17.9772 14.7036C18.3509 13.9563 18.7905 13.209 19.34 12.4617L18.8344 12.7914C19.4718 12.9013 21.0983 13.7365 21.8017 14.6157L21.6918 14.33V16.9676L19.1202 17.627C20.0433 17.6929 21.2522 18.1545 21.6918 18.5281V19.759L19.1202 20.4184C20.0433 20.4843 21.2522 20.9459 21.6918 21.3196V27.9135L21.9775 26.4848L18.9223 27.8476C21.4061 27.8476 23.9557 28.8147 25.7361 30.0016Z"
     fill="#444444"
     id="path5159" />
</svg>
