<?xml version="1.0" encoding="UTF-8" standalone="no"?>
<svg
   width="40"
   height="40"
   viewBox="0 0 40 40"
   fill="none"
   version="1.1"
   id="svg5161"
   sodipodi:docname="logo.svg"
   inkscape:export-filename="/home/orange/tempfolderiv/favicon-32x32.png"
   inkscape:export-xdpi="96"
   inkscape:export-ydpi="96"
   inkscape:version="1.2.1 (9c6d41e, 2022-07-14)"
   xmlns:inkscape="http://www.inkscape.org/namespaces/inkscape"
   xmlns:sodipodi="http://sodipodi.sourceforge.net/DTD/sodipodi-0.dtd"
   xmlns="http://www.w3.org/2000/svg"
   xmlns:svg="http://www.w3.org/2000/svg"
   xmlns:rdf="http://www.w3.org/1999/02/22-rdf-syntax-ns#"
   xmlns:cc="http://creativecommons.org/ns#"
   xmlns:dc="http://purl.org/dc/elements/1.1/">
  <metadata
     id="metadata5167">
    <rdf:RDF>
      <cc:Work
         rdf:about="">
        <dc:format>image/svg+xml</dc:format>
        <dc:type
           rdf:resource="http://purl.org/dc/dcmitype/StillImage" />
      </cc:Work>
    </rdf:RDF>
  </metadata>
  <defs
     id="defs5165" />
  <sodipodi:namedview
     pagecolor="#ffffff"
     bordercolor="#666666"
     borderopacity="1"
     objecttolerance="10"
     gridtolerance="10"
     guidetolerance="10"
     inkscape:pageopacity="0"
     inkscape:pageshadow="2"
     inkscape:window-width="956"
     inkscape:window-height="1054"
     id="namedview5163"
     showgrid="false"
     inkscape:zoom="5.9"
     inkscape:cx="-13.389831"
     inkscape:cy="20"
     inkscape:window-x="2150"
     inkscape:window-y="322"
     inkscape:window-maximized="0"
     inkscape:current-layer="svg5161"
     inkscape:showpageshadow="2"
     inkscape:pagecheckerboard="0"
     inkscape:deskcolor="#d1d1d1" />
  <rect
     style="fill:#ececec;stroke-width:1.00695"
     id="rect224"
     width="36.949154"
     height="31.525423"
     x="3.0508475"
     y="4.237288" />
  <path
     d="m 17.444773,28.1773 0.5495,-0.2637 V 11.0111 l -0.2198,0.0879 v 14.6166 c 0,1.2089 -0.0879,1.8683 -0.3297,2.4617 z m -0.6374,1.7365 c 1.0331,-1.3848 2.0222,-2.4618 3.4948,-3.7586 l -0.2637,-0.2638 c -0.3297,0.4177 -0.9232,1.121 -1.4287,1.6265 -0.7473,-0.1538 -1.4727,-0.4395 -2.3519,-0.9231 V 13.8025 c 0,-1.6705 0.7693,-2.6595 3.9564,-3.4288 L 20.060373,10 c -0.9671,0.5275 -3.275,1.5166 -3.9124,1.5166 -0.7253,0 -2.5496,-0.9012 -3.1211,-0.9012 -0.96712,0 -2.13205,1.9782 -3.3409501,3.0333 l 0.19782,0.1978 c 0.3956401,-0.7693 0.7253401,-0.9232 1.1429601,-0.9232 0.43959,0 1.05503,0.1539 1.86827,0.5495 1.0111,-0.5715 2.9233,-1.4946 3.9124,-1.8902 l 0.022,0.0219 c -1.1869,0.5275 -2.9893,2.0881 -2.9893,4.1542 v 1.2089 l -2.5716,0.6594 c 0.92316,0.0659 2.132,0.5275 2.5716,0.9012 v 1.2309 l -2.5716,0.6594 c 0.92316,0.0659 2.132,0.5275 2.5716,0.9011 v 5.2972 l -2.70348,0.7693 c 1.73638,0.4176 4.15418,1.5166 5.67078,2.5277 z"
     id="path5157"
     fill="#444444" />
  <path
     d="m 29.465373,17.3632 3.5827,-2.3738 v -0.2418 l -3.5827,2.3738 z m 0,2.198 3.5827,-2.3738 v -0.2418 l -3.5827,2.3738 z m 0.1319,8.1545 V 12.2859 l -0.2198,0.0879 v 15.232 z m -1.3188,2.2859 c 1.9342,-1.5386 4.5059,-3.0552 7.1215,-4.3959 l -2.1101,-1.0771 0.7034,1.5166 1.033,-6.528 c 0.2198,-1.3407 0.3077,-2.2199 0.3077,-2.9892 0,-4.1982 -3.0552,-5.9346 -4.4179,-5.9346 -0.2198,0 -2.198,2.6596 -3.297,3.6047 l 0.5275,0.4616 c 0.3956,-0.7693 0.8572,-1.5166 1.4067,-2.22 l -0.2637,0.022 c 1.7583,0.1758 3.5607,1.3847 3.5607,4.352 0,0.7253 -0.0659,1.3408 -0.2638,2.6376 l -1.3187,8.3523 0.1758,-0.0879 c -1.5166,-0.1758 -3.6267,-0.8572 -4.7916,-1.5386 V 13.0332 c 0,-0.6374 -3.1431,-2.5057 -3.4069,-2.5057 -0.1539,0 -0.5055,0.4396 -1.2089,1.3407 -0.6374,0.8353 -1.2748,1.6485 -1.9782,2.4618 l 0.4616,0.3736 c 0.3737,-0.7473 0.8133,-1.4946 1.3628,-2.2419 l -0.5056,0.3297 c 0.6374,0.1099 2.2639,0.9451 2.9673,1.8243 l -0.1099,-0.2857 v 2.6376 l -2.5716,0.6594 c 0.9231,0.0659 2.132,0.5275 2.5716,0.9011 v 1.2309 l -2.5716,0.6594 c 0.9231,0.0659 2.132,0.5275 2.5716,0.9012 v 6.5939 l 0.2857,-1.4287 -3.0552,1.3628 c 2.4838,0 5.0334,0.9671 6.8138,2.154 z"
     fill="#444444"
     id="path5159" />
  <text
     xml:space="preserve"
     style="font-size:11.4569px;fill:#cccccc;fill-opacity:1;stroke-width:0.954743"
     x="5.007587"
     y="17.82435"
     id="text334"
     transform="scale(0.70609307,1.4162439)"><tspan
       sodipodi:role="line"
       id="tspan332"
       x="5.007587"
       y="17.82435"
       style="stroke-width:0.954743;fill:#cccccc">&lt;</tspan></text>
</svg>
